<svg width="15" height="15" viewBox="0 0 15 15" fill="none" xmlns="http://www.w3.org/2000/svg">
<path d="M7.9423 0.916419C7.9423 0.67337 7.84575 0.440275 7.67388 0.268413C7.50202 0.0965509 7.26893 0 7.02588 0C6.78283 0 6.54974 0.0965509 6.37787 0.268413C6.20601 0.440275 6.10946 0.67337 6.10946 0.916419V6.10946H0.916419C0.67337 6.10946 0.440275 6.20601 0.268413 6.37787C0.0965509 6.54974 0 6.78283 0 7.02588C0 7.26893 0.0965509 7.50202 0.268413 7.67388C0.440275 7.84575 0.67337 7.9423 0.916419 7.9423H6.10946V13.1353C6.10946 13.3784 6.20601 13.6115 6.37787 13.7833C6.54974 13.9552 6.78283 14.0518 7.02588 14.0518C7.26893 14.0518 7.50202 13.9552 7.67388 13.7833C7.84575 13.6115 7.9423 13.3784 7.9423 13.1353V7.9423H13.1353C13.3784 7.9423 13.6115 7.84575 13.7833 7.67388C13.9552 7.50202 14.0518 7.26893 14.0518 7.02588C14.0518 6.78283 13.9552 6.54974 13.7833 6.37787C13.6115 6.20601 13.3784 6.10946 13.1353 6.10946H7.9423V0.916419Z" fill="white"/>
</svg>
