<svg width="19" height="19" viewBox="0 0 19 19" fill="none" xmlns="http://www.w3.org/2000/svg">
<path d="M9.5 1.9V0H19V1.9H9.5ZM9.5 5.7V3.8H19V5.7H9.5ZM9.5 9.5V7.6H19V9.5H9.5ZM16.1025 19C14.1233 19 12.1679 18.5687 10.2362 17.7061C8.30458 16.8435 6.54708 15.6202 4.96375 14.0362C3.38042 12.4523 2.15745 10.6948 1.29485 8.76375C0.43225 6.83272 0.000633333 4.8773 0 2.8975C0 2.6125 0.095 2.375 0.285 2.185C0.475 1.995 0.7125 1.9 0.9975 1.9H4.845C5.06667 1.9 5.26458 1.97537 5.43875 2.1261C5.61292 2.27683 5.71583 2.4548 5.7475 2.66L6.365 5.985C6.39667 6.23833 6.38875 6.45208 6.34125 6.62625C6.29375 6.80042 6.20667 6.95083 6.08 7.0775L3.77625 9.405C4.09292 9.99083 4.4688 10.557 4.9039 11.1036C5.339 11.6502 5.81812 12.1765 6.34125 12.6825C6.83208 13.1733 7.34667 13.6287 7.885 14.0486C8.42333 14.4685 8.99333 14.8523 9.595 15.2L11.8275 12.9675C11.97 12.825 12.1562 12.7183 12.3861 12.6473C12.616 12.5764 12.8415 12.5565 13.0625 12.5875L16.34 13.2525C16.5617 13.3158 16.7437 13.4308 16.8862 13.5973C17.0287 13.7639 17.1 13.9498 17.1 14.155V18.0025C17.1 18.2875 17.005 18.525 16.815 18.715C16.625 18.905 16.3875 19 16.1025 19Z" fill="#666666"/>
</svg>
