<svg width="17" height="17" viewBox="0 0 17 17" fill="none" xmlns="http://www.w3.org/2000/svg">
<path d="M16.0083 17C14.0407 17 12.0968 16.5712 10.1764 15.7137C8.25602 14.8561 6.5088 13.64 4.93472 12.0653C3.36065 10.4906 2.14483 8.74335 1.28728 6.82361C0.429722 4.90387 0.00062963 2.95989 0 0.991667C0 0.708333 0.0944444 0.472222 0.283333 0.283333C0.472222 0.0944444 0.708333 0 0.991667 0H4.81667C5.03704 0 5.2338 0.0749258 5.40694 0.224778C5.58009 0.37463 5.68241 0.551556 5.71389 0.755556L6.32778 4.06111C6.35926 4.31296 6.35139 4.52546 6.30417 4.69861C6.25694 4.87176 6.17037 5.0213 6.04444 5.14722L3.75417 7.46111C4.06898 8.04352 4.44267 8.60609 4.87522 9.14883C5.30778 9.69157 5.78409 10.2151 6.30417 10.7194C6.79213 11.2074 7.3037 11.6601 7.83889 12.0776C8.37407 12.495 8.94074 12.8766 9.53889 13.2222L11.7583 11.0028C11.9 10.8611 12.0851 10.755 12.3137 10.6845C12.5422 10.614 12.7664 10.5941 12.9861 10.625L16.2444 11.2861C16.4648 11.3491 16.6458 11.4634 16.7875 11.6289C16.9292 11.7945 17 11.9793 17 12.1833V16.0083C17 16.2917 16.9056 16.5278 16.7167 16.7167C16.5278 16.9056 16.2917 17 16.0083 17Z" fill="#1F2C5E"/>
</svg>
