<svg width="23" height="23" viewBox="0 0 23 23" fill="none" xmlns="http://www.w3.org/2000/svg">
<path fill-rule="evenodd" clip-rule="evenodd" d="M11.8147 10.592L16.1515 14.9288L15.2064 15.8751L10.4772 11.1459V4.45837H11.8147V10.592ZM11.1459 22.2918C4.99003 22.2918 0 17.3018 0 11.1459C0 4.99003 4.99003 0 11.1459 0C17.3018 0 22.2918 4.99003 22.2918 11.1459C22.2918 17.3018 17.3018 22.2918 11.1459 22.2918ZM11.1459 20.9543C13.7473 20.9543 16.2421 19.9209 18.0815 18.0815C19.9209 16.2421 20.9543 13.7473 20.9543 11.1459C20.9543 8.54456 19.9209 6.04976 18.0815 4.21032C16.2421 2.37089 13.7473 1.33751 11.1459 1.33751C8.54456 1.33751 6.04976 2.37089 4.21032 4.21032C2.37089 6.04976 1.33751 8.54456 1.33751 11.1459C1.33751 13.7473 2.37089 16.2421 4.21032 18.0815C6.04976 19.9209 8.54456 20.9543 11.1459 20.9543Z" fill="black"/>
</svg>
