<svg width="19" height="19" viewBox="0 0 19 19" fill="none" xmlns="http://www.w3.org/2000/svg">
<path d="M1.54175 6.93734C1.54175 5.48355 1.54175 4.75742 1.99346 4.30571C2.44516 3.854 3.17129 3.854 4.62508 3.854H13.8751C15.3289 3.854 16.055 3.854 16.5067 4.30571C16.9584 4.75742 16.9584 5.48355 16.9584 6.93734C16.9584 7.3004 16.9584 7.48232 16.8459 7.59563C16.7326 7.70817 16.5499 7.70817 16.1876 7.70817H2.31258C1.94952 7.70817 1.7676 7.70817 1.65429 7.59563C1.54175 7.48232 1.54175 7.29963 1.54175 6.93734ZM1.54175 13.8748C1.54175 15.3286 1.54175 16.0548 1.99346 16.5065C2.44516 16.9582 3.17129 16.9582 4.62508 16.9582H13.8751C15.3289 16.9582 16.055 16.9582 16.5067 16.5065C16.9584 16.0548 16.9584 15.3286 16.9584 13.8748V10.0207C16.9584 9.65761 16.9584 9.47569 16.8459 9.36238C16.7326 9.24984 16.5499 9.24984 16.1876 9.24984H2.31258C1.94952 9.24984 1.7676 9.24984 1.65429 9.36238C1.54175 9.47569 1.54175 9.65838 1.54175 10.0207V13.8748Z" fill="#888888"/>
<path d="M5.396 2.3125V4.625M13.1043 2.3125V4.625" stroke="#888888" stroke-width="1.54167" stroke-linecap="round"/>
</svg>
