<svg width="17" height="16" viewBox="0 0 17 16" fill="none" xmlns="http://www.w3.org/2000/svg">
<path d="M15.4062 15.9375H1.59375C0.711875 15.9375 0 15.2256 0 14.3438V1.59375C0 0.711875 0.711875 0 1.59375 0H15.4062C16.2881 0 17 0.711875 17 1.59375V14.3438C17 15.2256 16.2881 15.9375 15.4062 15.9375ZM1.59375 1.0625C1.29625 1.0625 1.0625 1.29625 1.0625 1.59375V14.3438C1.0625 14.6412 1.29625 14.875 1.59375 14.875H15.4062C15.7037 14.875 15.9375 14.6412 15.9375 14.3438V1.59375C15.9375 1.29625 15.7037 1.0625 15.4062 1.0625H1.59375Z" fill="#666666"/>
</svg>
