<svg width="17" height="17" viewBox="0 0 17 17" fill="none" xmlns="http://www.w3.org/2000/svg">
<g clip-path="url(#clip0_14_2829)">
<path d="M15.4062 17H1.59375C0.711875 17 0 16.2881 0 15.4062V2.65625C0 1.77438 0.711875 1.0625 1.59375 1.0625H15.4062C16.2881 1.0625 17 1.77438 17 2.65625V15.4062C17 16.2881 16.2881 17 15.4062 17ZM1.59375 2.125C1.29625 2.125 1.0625 2.35875 1.0625 2.65625V15.4062C1.0625 15.7037 1.29625 15.9375 1.59375 15.9375H15.4062C15.7037 15.9375 15.9375 15.7037 15.9375 15.4062V2.65625C15.9375 2.35875 15.7037 2.125 15.4062 2.125H1.59375Z" fill="#666666"/>
<path d="M4.78125 4.25C4.48375 4.25 4.25 4.01625 4.25 3.71875V0.53125C4.25 0.23375 4.48375 0 4.78125 0C5.07875 0 5.3125 0.23375 5.3125 0.53125V3.71875C5.3125 4.01625 5.07875 4.25 4.78125 4.25ZM12.2188 4.25C11.9213 4.25 11.6875 4.01625 11.6875 3.71875V0.53125C11.6875 0.23375 11.9213 0 12.2188 0C12.5162 0 12.75 0.23375 12.75 0.53125V3.71875C12.75 4.01625 12.5162 4.25 12.2188 4.25ZM16.4688 6.375H0.53125C0.23375 6.375 0 6.14125 0 5.84375C0 5.54625 0.23375 5.3125 0.53125 5.3125H16.4688C16.7663 5.3125 17 5.54625 17 5.84375C17 6.14125 16.7663 6.375 16.4688 6.375Z" fill="#666666"/>
</g>
<defs>
<clipPath id="clip0_14_2829">
<rect width="17" height="17" fill="white"/>
</clipPath>
</defs>
</svg>
