<svg width="22" height="22" viewBox="0 0 22 22" fill="none" xmlns="http://www.w3.org/2000/svg">
<path d="M7.06309 15.6935C7.26031 15.8328 7.48603 15.9264 7.72392 15.9677C7.9618 16.009 8.20588 15.9968 8.43849 15.9321C8.67109 15.8674 8.88639 15.7518 9.06879 15.5936C9.25119 15.4354 9.39612 15.2386 9.49309 15.0175L10.2631 12.6775C10.4504 12.1145 10.7662 11.6029 11.1855 11.1832C11.6049 10.7635 12.1163 10.4473 12.6791 10.2595L14.9171 9.53252C15.2352 9.42185 15.5102 9.21363 15.7031 8.93752C15.852 8.72818 15.949 8.48643 15.986 8.23223C16.0231 7.97802 15.9992 7.71865 15.9162 7.47551C15.8333 7.23237 15.6937 7.01244 15.5091 6.83388C15.3244 6.65531 15.0999 6.52322 14.8541 6.44852L12.6391 5.72852C12.076 5.54171 11.5641 5.22631 11.144 4.80729C10.724 4.38828 10.4073 3.87718 10.2191 3.31452L9.49209 1.07752C9.38031 0.760569 9.17272 0.486233 8.89809 0.292515C8.62182 0.102015 8.29417 0 7.95859 0C7.62301 0 7.29535 0.102015 7.01909 0.292515C6.74021 0.48973 6.53033 0.76957 6.41909 1.09252L5.68309 3.35752C5.49533 3.90557 5.18538 4.40375 4.77669 4.81435C4.368 5.22495 3.87127 5.53721 3.32409 5.72752L1.08409 6.45352C0.765345 6.56619 0.489649 6.77541 0.295355 7.05207C0.101062 7.32873 -0.00216576 7.65907 3.44541e-05 7.99714C0.00223467 8.3352 0.109753 8.66417 0.307631 8.93828C0.505509 9.21239 0.783905 9.418 1.10409 9.52652L3.32009 10.2465C4.03853 10.4876 4.67012 10.9349 5.13609 11.5325C5.40209 11.8755 5.60709 12.2605 5.74209 12.6725L6.47009 14.9065C6.58209 15.2245 6.79009 15.4995 7.06509 15.6935M16.8091 21.7735C17.0126 21.9173 17.2559 21.9942 17.5051 21.9935C17.7526 21.9943 17.9943 21.9185 18.1971 21.7765C18.4058 21.6291 18.5621 21.4189 18.6431 21.1765L19.0151 20.0335C19.0938 19.7962 19.2266 19.5805 19.4032 19.4034C19.5797 19.2264 19.795 19.0929 20.0321 19.0135L21.1981 18.6355C21.4332 18.552 21.6368 18.3978 21.7809 18.1941C21.925 17.9904 22.0026 17.7471 22.0031 17.4975C22.0031 17.2414 21.9212 16.9921 21.7693 16.7859C21.6175 16.5797 21.4036 16.4275 21.1591 16.3515L20.0151 15.9815C19.7777 15.9027 19.5619 15.7697 19.3848 15.593C19.2078 15.4163 19.0743 15.2008 18.9951 14.9635L18.6151 13.8005C18.5331 13.5632 18.3788 13.3575 18.1738 13.2125C17.9688 13.0674 17.7234 12.9904 17.4723 12.9922C17.2212 12.9939 16.977 13.0744 16.7741 13.2223C16.5711 13.3702 16.4197 13.578 16.3411 13.8165L15.9671 14.9625C15.8904 15.1967 15.7611 15.4102 15.5889 15.5865C15.4167 15.7629 15.2064 15.8973 14.9741 15.9795L13.8081 16.3575C13.5724 16.4408 13.3683 16.595 13.2238 16.7989C13.0793 17.0029 13.0015 17.2466 13.0011 17.4965C13.0013 17.7486 13.081 17.9942 13.2287 18.1985C13.3765 18.4028 13.5848 18.5553 13.8241 18.6345L14.9681 19.0065C15.2064 19.0851 15.4229 19.2186 15.6001 19.3963C15.7773 19.5741 15.9102 19.791 15.9881 20.0295L16.3671 21.1925C16.4498 21.4275 16.6036 21.6309 16.8071 21.7745" fill="white"/>
</svg>
