<svg width="110" height="83" viewBox="0 0 110 83" fill="none" xmlns="http://www.w3.org/2000/svg">
<path opacity="0.43" d="M6.86187 82.3833C5.58827 76.6659 4.30812 70.7819 5.234 64.9979C6.30512 58.3067 11.0351 52.9538 17.7229 51.4924C24.2591 50.0641 31.3268 52.6035 36.9973 48.0859C43.2222 43.1267 42.4623 34.7839 42.0946 27.6746C41.6868 19.7911 45.9227 11.6801 52.8881 7.85105C59.9947 3.94441 70.3207 4.50476 76.2125 10.4068C84.7873 18.9966 80.1675 32.4294 86.5853 41.9369C90.6833 48.0079 97.5122 51.0627 100.468 58.1071C103.71 65.8316 102.558 74.5093 102.959 82.6575C94.6221 83.1068 86.2715 82.6867 77.922 82.6867H6.97519C7.14673 82.9325 6.64005 82.875 6.64428 82.5753C6.64847 82.2757 7.09183 82.5755 6.86187 82.3833Z" fill="url(#paint0_linear_317_4111)"/>
<path d="M43.4444 72.4688L42.4434 82.8645H72.4243L71.2709 72.4688H43.4444Z" fill="url(#paint1_linear_317_4111)"/>
<path d="M60.7262 30.3799L65.8717 31.2468C69.2663 32.0272 71.998 34.5397 73.0589 37.8573L77.0833 50.4417L70.3165 57.3236L71.2714 72.4682C71.2714 72.4682 63.7476 73.8565 57.4342 73.8565C53.2752 73.8565 43.4448 72.4682 43.4448 72.4682L46.4667 45.579L40.0407 54.3285L42.7718 72.4682L40.5288 75.6717C40.5288 75.6717 35.9808 69.6676 30.9541 54.9465C30.9541 54.9465 38.4044 37.8915 46.0343 31.8841L56.2997 29.0918L60.7262 30.3799Z" fill="white"/>
<path d="M71.6167 49.4712L60.0884 36.3658L56.9295 31.1396H54.8799C54.8799 31.1396 59.5884 50.0098 68.0262 60.8711L70.1703 72.6571C70.8658 72.5431 71.2712 72.4685 71.2712 72.4685L70.3164 57.3239L73.3539 54.2348L71.6167 49.4712Z" fill="#FFD0CC"/>
<path d="M54.9193 20.7395L54.2197 16.0791C54.2197 16.0791 58.2134 16.3939 62.8773 17.406C65.6604 18.0099 66.7098 21.5684 65.4021 24.0982C64.5718 25.7047 63.4716 27.6199 60.0603 29.9661L56.8177 26.404L54.9193 20.7395Z" fill="#011721"/>
<path d="M56.2997 29.0923C56.8333 28.8605 56.934 28.1329 56.4707 27.7809C56.3133 27.6613 56.1272 27.5761 55.9225 27.5375L53.6963 27.1166L52.293 23.5257L55.6685 19.9434C55.6685 19.9434 55.7469 23.3792 58.9593 24.8098L60.7209 22.9219C60.7209 22.9219 62.5639 24.5986 60.8072 26.7012C60.8072 26.7012 59.3423 29.4931 60.7262 30.3805L56.6906 33.3089L56.2997 29.0923Z" fill="#EDAC80"/>
<path d="M59.1618 31.884C59.1618 31.884 58.684 29.9011 58.6265 28.6655C58.6265 28.6655 58.7523 27.8824 59.1618 27.2681C59.1618 27.2681 58.9678 26.9987 58.5475 27.322L58.041 27.9039C58.041 27.9039 57.1789 25.3068 55.196 24.6387C55.196 24.6387 54.7757 24.7033 55.002 25.2529C55.002 25.2529 56.4676 26.4491 56.6939 27.6238C56.6939 27.6238 55.5193 26.0073 53.7196 26.309C53.7196 26.309 52.8036 27.8716 53.2454 29.154C53.2454 29.154 54.2369 29.3157 54.6033 30.5226C54.6033 30.5226 55.487 32.721 56.2952 33.0443L59.1618 31.884Z" fill="url(#paint2_linear_317_4111)"/>
<path d="M42.7713 72.4688L43.34 73.552L42.7582 79.5944L40.5283 75.6722L42.7713 72.4688Z" fill="#EDAC80"/>
<path d="M56.2959 33.045C56.2959 33.045 62.9223 51.2294 71.6788 58.5782C73.1803 59.8383 75.3259 59.3301 76.0906 57.5235C76.6281 56.2535 77.0965 54.4748 77.2059 52.0425C77.2954 50.0554 76.4912 48.1076 75.0443 46.8028C73.7923 45.6738 72.1274 44.1731 70.4726 42.684C67.7795 40.2606 59.1624 31.8848 59.1624 31.8848L56.2959 33.045Z" fill="url(#paint3_linear_317_4111)"/>
<path d="M46.4663 45.5791L43.4443 72.4683C43.4443 72.4683 45.3995 72.7443 47.9332 73.0501L46.4663 45.5791Z" fill="url(#paint4_linear_317_4111)"/>
<path d="M79.8024 19.2599C80.4292 18.2488 81.0857 17.4238 81.7718 16.7853C82.4576 16.1468 83.3241 15.4269 84.3711 14.6255C85.1828 14.0118 85.8257 13.4945 86.3001 13.0731C86.7741 12.6519 87.2044 12.1611 87.5906 11.6003C87.9766 11.0396 88.2621 10.4025 88.4469 9.68863L88.4526 9.66666C88.7467 8.53029 88.6899 7.57935 88.2821 6.81291C87.8741 6.04699 87.1603 5.53165 86.1407 5.26773C85.1062 4.99992 84.2099 5.16075 83.4514 5.749C82.693 6.33784 82.1325 7.30024 81.7714 8.6365L81.7658 8.65847L76.4121 7.27256L76.4178 7.25059C76.9737 5.34279 77.7777 3.79857 78.8297 2.61746C79.8815 1.43653 81.1335 0.653211 82.5857 0.267409C84.0378 -0.11815 85.6304 -0.0868933 87.3641 0.361944C89.1702 0.829495 90.6386 1.55147 91.7694 2.52823C92.8998 3.50484 93.6466 4.68904 94.009 6.08057C94.3716 7.47241 94.3303 9.02795 93.8854 10.7467L93.8797 10.7687C93.6006 11.8469 93.2031 12.7814 92.6874 13.5726C92.1715 14.364 91.6196 15.0253 91.0311 15.557C90.4428 16.0887 89.6766 16.7064 88.733 17.41C87.789 18.114 87.0173 18.738 86.4179 19.2823C85.8186 19.8266 85.2579 20.5055 84.7368 21.3184C84.5629 21.5895 84.402 21.8778 84.2538 22.1831C83.7019 23.321 82.459 23.9464 81.2347 23.6294L81.1032 23.5954C79.4976 23.1798 78.6628 21.3721 79.4345 19.904C79.5516 19.6812 79.6742 19.4665 79.8024 19.2599ZM80.5139 25.157C81.9801 25.5366 82.861 27.0329 82.4814 28.4991L82.4757 28.5211C82.0962 29.9873 80.5999 30.8682 79.1336 30.4887C77.6674 30.1091 76.7865 28.6128 77.166 27.1465L77.1717 27.1246C77.5513 25.6583 79.0476 24.7774 80.5139 25.157Z" fill="#09B0FF"/>
<path d="M51.7216 6.36592C51.6802 6.36592 51.6394 6.34731 51.6127 6.31165L47.0195 0.218526C46.9741 0.158574 46.9861 0.0730849 47.0462 0.0278615C47.106 -0.0180896 47.1913 -0.00585849 47.2369 0.0546472L51.8301 6.14778C51.8755 6.20773 51.8635 6.29322 51.8033 6.33844C51.7789 6.35705 51.7501 6.36592 51.7216 6.36592Z" fill="white"/>
<path d="M50.7536 8.53329C50.7426 8.53329 50.7316 8.53204 50.7206 8.5292L45.0292 7.11317C44.9561 7.09508 44.9116 7.02113 44.9299 6.94822C44.9482 6.87496 45.0232 6.83043 45.0948 6.8489L50.7862 8.26493C50.8593 8.28302 50.9038 8.35697 50.8855 8.42988C50.8701 8.49198 50.8146 8.53329 50.7536 8.53329Z" fill="white"/>
<path d="M67.8267 12.6356C67.782 12.6356 67.7384 12.6136 67.7125 12.5734C67.6713 12.5102 67.6894 12.426 67.7526 12.385L71.0323 10.2628C71.0962 10.2224 71.1803 10.2403 71.2207 10.3033C71.2619 10.3664 71.2438 10.4506 71.1806 10.4916L67.9009 12.6138C67.8778 12.6285 67.8523 12.6356 67.8267 12.6356Z" fill="white"/>
<path d="M68.2136 15.0479C68.1458 15.0479 68.0869 14.9974 68.0784 14.9284C68.0692 14.8539 68.1221 14.7858 68.1969 14.7766L75.2027 13.9083C75.281 13.8989 75.3453 13.9524 75.3545 14.0268C75.3637 14.1013 75.3109 14.1694 75.236 14.1786L68.2303 15.0468C68.2246 15.0476 68.2189 15.0479 68.2136 15.0479Z" fill="white"/>
<path d="M109.525 83H0.136223C0.0610245 83 0 82.939 0 82.8638C0 82.7886 0.0610245 82.7275 0.136223 82.7275H109.525C109.6 82.7275 109.661 82.7886 109.661 82.8638C109.661 82.939 109.6 83 109.525 83Z" fill="white"/>
<defs>
<linearGradient id="paint0_linear_317_4111" x1="4.91799" y1="44.1113" x2="102.959" y2="44.1113" gradientUnits="userSpaceOnUse">
<stop stop-color="#00ADFF"/>
<stop offset="0.0851" stop-color="#09B0FF"/>
<stop offset="0.2211" stop-color="#20B7FF"/>
<stop offset="0.3911" stop-color="#46C3FF"/>
<stop offset="0.5884" stop-color="#7BD4FF"/>
<stop offset="0.8057" stop-color="#BDEAFF"/>
<stop offset="1" stop-color="white"/>
</linearGradient>
<linearGradient id="paint1_linear_317_4111" x1="57.4338" y1="82.9713" x2="57.4338" y2="77.1245" gradientUnits="userSpaceOnUse">
<stop stop-color="#05293C"/>
<stop offset="0.2952" stop-color="#042535"/>
<stop offset="0.7142" stop-color="#031823"/>
<stop offset="1" stop-color="#010D12"/>
</linearGradient>
<linearGradient id="paint2_linear_317_4111" x1="59.0214" y1="26.1814" x2="54.6183" y2="31.033" gradientUnits="userSpaceOnUse">
<stop stop-color="#FFD9C0"/>
<stop offset="0.2233" stop-color="#FDD4B9"/>
<stop offset="0.5409" stop-color="#F8C7A7"/>
<stop offset="0.9134" stop-color="#EFB288"/>
<stop offset="1" stop-color="#EDAC80"/>
</linearGradient>
<linearGradient id="paint3_linear_317_4111" x1="65.9459" y1="45.746" x2="61.727" y2="53.2861" gradientUnits="userSpaceOnUse">
<stop stop-color="white"/>
<stop offset="0.2145" stop-color="#FFF8F8"/>
<stop offset="0.5195" stop-color="#FFE6E6"/>
<stop offset="0.8773" stop-color="#FFC7C7"/>
<stop offset="1" stop-color="#FFBBBB"/>
</linearGradient>
<linearGradient id="paint4_linear_317_4111" x1="46.5293" y1="71.4611" x2="44.2403" y2="53.3738" gradientUnits="userSpaceOnUse">
<stop stop-color="white"/>
<stop offset="0.2145" stop-color="#FFF8F8"/>
<stop offset="0.5195" stop-color="#FFE6E6"/>
<stop offset="0.8773" stop-color="#FFC7C7"/>
<stop offset="1" stop-color="#FFBBBB"/>
</linearGradient>
</defs>
</svg>
