<svg width="24" height="24" viewBox="0 0 24 24" fill="none" xmlns="http://www.w3.org/2000/svg">
<path d="M7 13.23C6.66133 13.23 6.37133 13.11 6.13 12.87C5.88867 12.63 5.76867 12.34 5.77 12C5.77133 11.66 5.89133 11.37 6.13 11.13C6.36867 10.89 6.65867 10.77 7 10.77C7.34133 10.77 7.63133 10.89 7.87 11.13C8.10867 11.37 8.22867 11.66 8.23 12C8.23133 12.34 8.11133 12.63 7.87 12.87C7.62867 13.11 7.33867 13.23 7 13.23ZM7 17C5.61133 17 4.43067 16.5143 3.458 15.543C2.48533 14.5717 1.99933 13.3923 2 12.005C2.00067 10.6177 2.48667 9.436 3.458 8.46C4.43067 7.48667 5.61133 7 7 7C8.02667 7 8.95267 7.27833 9.778 7.835C10.6033 8.391 11.2057 9.11267 11.585 10H20.46C20.562 10 20.6607 10.0187 20.756 10.056C20.852 10.0933 20.9437 10.1553 21.031 10.242L22.223 11.434C22.3097 11.522 22.371 11.612 22.407 11.704C22.4417 11.7973 22.459 11.8967 22.459 12.002C22.459 12.1073 22.4417 12.206 22.407 12.298C22.3723 12.39 22.311 12.4793 22.223 12.566L20.106 14.663C20.0393 14.735 19.9593 14.7927 19.866 14.836C19.7727 14.8793 19.681 14.9027 19.591 14.906C19.501 14.9093 19.4097 14.8977 19.317 14.871C19.2243 14.8443 19.1353 14.802 19.05 14.744L17.885 13.866L16.517 14.864C16.447 14.9173 16.3747 14.9543 16.3 14.975C16.2253 14.9957 16.1447 15.0057 16.058 15.005C15.9713 15.0043 15.8897 14.991 15.813 14.965C15.7363 14.939 15.663 14.905 15.593 14.863L14.297 14H11.584C11.204 14.8747 10.6017 15.5933 9.777 16.156C8.95233 16.7187 8.02667 17 7 17ZM7 16C7.98467 16 8.82467 15.7037 9.52 15.111C10.2153 14.5183 10.6607 13.8147 10.856 13H14.616L16.046 13.967C16.0333 13.967 16.03 13.968 16.036 13.97C16.0427 13.972 16.046 13.971 16.046 13.967L17.904 12.634L19.525 13.856L21.381 12L20.381 11H10.856C10.6613 10.1847 10.216 9.481 9.52 8.889C8.824 8.297 7.984 8.00067 7 8C5.9 8 4.95833 8.39167 4.175 9.175C3.39167 9.95833 3 10.9 3 12C3 13.1 3.39167 14.0417 4.175 14.825C4.95833 15.6083 5.9 16 7 16Z" fill="#404040"/>
</svg>
