<svg width="45" height="45" viewBox="0 0 45 45" fill="none" xmlns="http://www.w3.org/2000/svg">
<path fill-rule="evenodd" clip-rule="evenodd" d="M22.2027 2.43949e-10C25.1184 -1.36672e-05 28.0056 0.574267 30.6994 1.69005C33.3931 2.80584 35.8408 4.44128 37.9025 6.50299C39.9642 8.56471 41.5997 11.0123 42.7155 13.7061C43.8313 16.3999 44.4056 19.287 44.4056 22.2027C44.4056 34.465 34.465 44.4056 22.2027 44.4056C9.94056 44.4056 0 34.465 0 22.2027C0 9.94056 9.94056 2.43949e-10 22.2027 2.43949e-10ZM24.4231 24.4231H19.9825C14.4857 24.4231 9.76665 27.7521 7.73124 32.5043C10.9518 37.0203 16.2334 39.965 22.2027 39.965C28.1721 39.965 33.4537 37.0203 36.6743 32.504C34.6389 27.7521 29.9198 24.4231 24.4231 24.4231ZM22.2027 6.66083C18.5241 6.66083 15.5419 9.64301 15.5419 13.3217C15.5419 17.0003 18.5241 19.9825 22.2027 19.9825C25.8814 19.9825 28.8636 17.0003 28.8636 13.3217C28.8636 9.64301 25.8815 6.66083 22.2027 6.66083Z" fill="#1F2C5E"/>
</svg>
