<svg width="19" height="19" viewBox="0 0 19 19" fill="none" xmlns="http://www.w3.org/2000/svg">
<path d="M17.4166 9.50016C17.4166 13.8725 13.8723 17.4168 9.49992 17.4168C5.12754 17.4168 1.58325 13.8725 1.58325 9.50016C1.58325 5.12779 5.12754 1.5835 9.49992 1.5835V3.16683C8.0106 3.16695 6.56897 3.69191 5.42831 4.64949C4.28765 5.60706 3.52094 6.93599 3.26288 8.40277C3.00482 9.86956 3.27193 11.3804 4.01728 12.6698C4.76263 13.9591 5.93852 14.9446 7.33837 15.453C8.73822 15.9614 10.2725 15.9603 11.6715 15.4497C13.0706 14.9392 14.245 13.9519 14.9884 12.6614C15.7318 11.3709 15.9966 9.85966 15.7363 8.39327C15.476 6.92688 14.7072 5.59912 13.5651 4.64329L11.8749 6.3335V1.5835H16.6249L14.6877 3.5207C15.5451 4.26312 16.2326 5.18143 16.7034 6.2132C17.1743 7.24497 17.4175 8.36602 17.4166 9.50016Z" fill="white"/>
</svg>
