<svg width="25" height="24" viewBox="0 0 25 24" fill="none" xmlns="http://www.w3.org/2000/svg">
<g clip-path="url(#clip0_222_12885)">
<path fill-rule="evenodd" clip-rule="evenodd" d="M24.0258 4.04517C24.3297 4.32898 24.5004 4.71385 24.5004 5.11515C24.5004 5.51645 24.3297 5.90132 24.0258 6.18513L11.8768 17.5286C11.7162 17.6786 11.5256 17.7975 11.3158 17.8786C11.106 17.9598 10.8812 18.0016 10.6541 18.0016C10.427 18.0016 10.2021 17.9598 9.99235 17.8786C9.78256 17.7975 9.59195 17.6786 9.43139 17.5286L3.39523 11.8937C3.24042 11.7541 3.11693 11.5871 3.03198 11.4025C2.94704 11.2178 2.90232 11.0192 2.90045 10.8183C2.89858 10.6173 2.93959 10.418 3.02109 10.232C3.10259 10.0461 3.22295 9.87708 3.37514 9.73498C3.52733 9.59288 3.7083 9.48051 3.9075 9.40441C4.1067 9.32832 4.32014 9.29003 4.53536 9.29177C4.75058 9.29352 4.96327 9.33527 5.16102 9.41459C5.35878 9.4939 5.53763 9.6092 5.68715 9.75374L10.6535 14.3908L21.7328 4.04517C21.8833 3.90454 22.0621 3.79297 22.2588 3.71686C22.4555 3.64074 22.6664 3.60156 22.8793 3.60156C23.0923 3.60156 23.3031 3.64074 23.4998 3.71686C23.6966 3.79297 23.8753 3.90454 24.0258 4.04517Z" fill="white"/>
</g>
<defs>
<clipPath id="clip0_222_12885">
<rect width="24" height="24" fill="white" transform="translate(0.5)"/>
</clipPath>
</defs>
</svg>
