<svg width="77" height="77" viewBox="0 0 77 77" fill="none" xmlns="http://www.w3.org/2000/svg">
<path d="M15.1105 34.6539H22.0405C22.519 34.6539 22.9068 34.2661 22.9068 33.7877C22.9068 33.3092 22.519 32.9214 22.0405 32.9214H15.1105C13.6776 32.9214 12.5118 31.7556 12.5118 30.3227V15.1633C12.5118 13.7303 13.6776 12.5645 15.1105 12.5645H39.3655C39.844 12.5645 40.2318 12.1767 40.2318 11.6983C40.2318 11.2198 39.844 10.832 39.3655 10.832H15.1105C12.7223 10.832 10.7793 12.775 10.7793 15.1633V30.3227C10.7793 32.7109 12.7223 34.6539 15.1105 34.6539Z" fill="#454545"/>
<path d="M16.4102 16.0303V29.4572C16.4102 29.9356 16.798 30.3234 17.2764 30.3234C17.7548 30.3234 18.1427 29.9356 18.1427 29.4572V16.0303C18.1427 15.5519 17.7548 15.1641 17.2764 15.1641C16.798 15.1641 16.4102 15.5519 16.4102 16.0303Z" fill="#454545"/>
<path d="M51.4932 10.832C51.0148 10.832 50.627 11.2198 50.627 11.6983C50.627 12.1767 51.0148 12.5645 51.4932 12.5645H61.8882C63.3212 12.5645 64.487 13.7303 64.487 15.1633V22.0933C64.487 22.5717 64.8748 22.9595 65.3532 22.9595C65.8316 22.9595 66.2195 22.5717 66.2195 22.0933V15.1633C66.2195 12.775 64.2765 10.832 61.8882 10.832H51.4932Z" fill="#454545"/>
<path d="M41.1079 33.4737C41.5368 33.2616 41.7124 32.742 41.5002 32.3132C41.1736 31.6531 41.0192 30.9102 41.0536 30.1649C41.1567 27.9306 42.9876 26.0998 45.2219 25.9971C46.4328 25.9415 47.5817 26.3702 48.4554 27.2045C49.3297 28.0395 49.8112 29.165 49.8112 30.3735C49.8112 31.6621 47.0521 34.1016 46.1455 34.9033C45.1403 35.7921 44.5637 37.0761 44.5637 38.426V39.3858C44.5637 39.8642 44.9515 40.2521 45.43 40.2521C45.9084 40.2521 46.2962 39.8642 46.2962 39.3858V38.426C46.2962 37.5722 46.6596 36.7613 47.2931 36.2012C49.5007 34.2492 51.5437 32.1922 51.5437 30.3735C51.5437 28.6871 50.8719 27.1167 49.652 25.9517C48.4327 24.7872 46.8312 24.1894 45.1423 24.2664C42.023 24.4099 39.4669 26.9658 39.3229 30.085C39.2751 31.1228 39.491 32.1589 39.9474 33.0815C40.1595 33.5103 40.6793 33.6859 41.1079 33.4737Z" fill="#454545"/>
<path d="M45.4289 42.1836C44.7584 42.1836 44.2129 42.7291 44.2129 43.3996C44.2129 44.0702 44.7584 44.6157 45.4289 44.6157C46.0995 44.6157 46.645 44.0702 46.645 43.3996C46.645 42.7291 46.0995 42.1836 45.4289 42.1836ZM45.4289 43.9161C45.1442 43.9161 44.9125 43.6844 44.9125 43.3996C44.9125 43.1149 45.1442 42.8832 45.4289 42.8832C45.7137 42.8832 45.9454 43.1149 45.9454 43.3996C45.9454 43.6844 45.7137 43.9161 45.4289 43.9161Z" fill="#454545"/>
<path d="M45.4299 50.2466C54.2665 50.2466 61.4555 43.0575 61.4555 34.2209C61.4555 25.3844 54.2665 18.1953 45.4299 18.1953C36.5934 18.1953 29.4043 25.3844 29.4043 34.2209C29.4043 43.0575 36.5934 50.2466 45.4299 50.2466ZM45.4299 19.9278C53.3112 19.9278 59.723 26.3397 59.723 34.2209C59.723 42.1022 53.3112 48.5141 45.4299 48.5141C37.5486 48.5141 31.1368 42.1022 31.1368 34.2209C31.1368 26.3397 37.5486 19.9278 45.4299 19.9278Z" fill="#454545"/>
<path d="M40.7363 54.4775C42.2449 54.8269 43.8159 55.0116 45.4292 55.0116C56.8928 55.0116 66.2192 45.6853 66.2192 34.2216C66.2192 22.758 56.8928 13.4316 45.4292 13.4316C33.9655 13.4316 24.6392 22.758 24.6392 34.2216C24.6392 39.6975 26.7682 44.6846 30.2406 48.4016L25.235 57.0715C23.5633 59.9671 24.5589 63.683 27.4545 65.3547C28.4071 65.9047 29.448 66.166 30.4762 66.1659C32.5733 66.1658 34.6159 65.0783 35.7378 63.1352L40.7363 54.4775ZM45.4292 15.1641C55.9375 15.1641 64.4867 23.7133 64.4867 34.2216C64.4867 44.73 55.9375 53.2791 45.4292 53.2791C34.9208 53.2791 26.3717 44.73 26.3717 34.2216C26.3717 23.7133 34.9208 15.1641 45.4292 15.1641ZM34.2373 62.269C33.0433 64.3373 30.3892 65.0485 28.3207 63.8543C26.2525 62.6602 25.5413 60.006 26.7354 57.9377L31.5166 49.6566C33.6598 51.5903 36.2065 53.0843 39.0131 53.9971L34.2373 62.269Z" fill="#454545"/>
</svg>
