<svg width="20" height="20" viewBox="0 0 20 20" fill="none" xmlns="http://www.w3.org/2000/svg">
<path d="M7.2088 0C9.12069 0 10.9543 0.759496 12.3062 2.11141C13.6581 3.46332 14.4176 5.2969 14.4176 7.2088C14.4176 8.99436 13.7633 10.6357 12.6875 11.9001L12.9869 12.1995H13.8631L19.4083 17.7447L17.7447 19.4083L12.1995 13.8631V12.9869L11.9001 12.6875C10.5918 13.8037 8.92853 14.4171 7.2088 14.4176C5.2969 14.4176 3.46332 13.6581 2.11141 12.3062C0.759496 10.9543 0 9.12069 0 7.2088C0 5.2969 0.759496 3.46332 2.11141 2.11141C3.46332 0.759496 5.2969 0 7.2088 0ZM7.2088 2.21809C4.43618 2.21809 2.21809 4.43618 2.21809 7.2088C2.21809 9.98141 4.43618 12.1995 7.2088 12.1995C9.98141 12.1995 12.1995 9.98141 12.1995 7.2088C12.1995 4.43618 9.98141 2.21809 7.2088 2.21809Z" fill="#1B9ED9"/>
</svg>
