<svg width="20" height="20" viewBox="0 0 20 20" fill="none" xmlns="http://www.w3.org/2000/svg">
<g clip-path="url(#clip0_353_9362)">
<path d="M17.5007 8.33398C14.7919 8.49109 12.1867 9.4301 10.0007 11.0373C7.81457 9.4301 5.20942 8.49109 2.50065 8.33398V10.8007C2.05789 10.8015 1.63359 10.9782 1.32105 11.2918C1.00852 11.6055 0.833323 12.0304 0.833986 12.4732V13.3098C0.833986 14.234 2.50065 15.1498 2.50065 15.1498V16.8223C4.71397 16.9648 6.8485 17.6986 8.68149 18.9473C9.14444 19.2683 9.58517 19.6202 10.0007 20.0007C10.4161 19.6202 10.8569 19.2683 11.3198 18.9473C13.1528 17.6986 15.2873 16.9648 17.5007 16.8223V14.9823C17.9434 14.9814 18.3677 14.8048 18.6803 14.4911C18.9928 14.1775 19.168 13.7526 19.1673 13.3098V12.4732C19.168 12.0304 18.9928 11.6055 18.6803 11.2918C18.3677 10.9782 17.9434 10.8015 17.5007 10.8007V8.33398ZM10.0007 17.8523C8.27232 16.5857 6.27688 15.7316 4.16732 15.3557V10.2307C5.78405 10.5563 7.31904 11.203 8.68149 12.1323C9.14444 12.4533 9.58517 12.8052 10.0007 13.1857C10.4161 12.8052 10.8569 12.4533 11.3198 12.1323C12.6822 11.2027 14.2172 10.5558 15.834 10.2298V15.3557C13.7244 15.7316 11.729 16.5857 10.0007 17.8523ZM9.16732 6.66732H10.834V7.50065H9.16732V6.66732ZM9.16732 3.33398H10.834V4.16732H9.16732V3.33398Z" fill="#454545"/>
<path d="M9.16746 8.33283H10.8341V9.16617H9.16746V8.33283ZM7.50079 4.16617C7.72181 4.16617 7.93377 4.07837 8.09005 3.92209C8.24633 3.76581 8.33412 3.55385 8.33412 3.33283C8.3349 3.22428 8.31409 3.11665 8.27291 3.0162C8.23172 2.91576 8.17098 2.8245 8.09422 2.74774C8.01745 2.67098 7.9262 2.61024 7.82575 2.56905C7.72531 2.52787 7.61768 2.50706 7.50913 2.50783C7.40024 2.50729 7.29231 2.52819 7.1915 2.56936C7.09069 2.61052 6.99898 2.67114 6.92159 2.74774C6.76531 2.90246 6.6769 3.11292 6.67579 3.33283C6.67469 3.55274 6.76099 3.76408 6.9157 3.92036C7.07042 4.07664 7.28088 4.16506 7.50079 4.16617Z" fill="#454545"/>
<path d="M12.5003 4.16667C12.9606 4.16667 13.3337 3.79357 13.3337 3.33333C13.3337 2.8731 12.9606 2.5 12.5003 2.5C12.0401 2.5 11.667 2.8731 11.667 3.33333C11.667 3.79357 12.0401 4.16667 12.5003 4.16667Z" fill="#454545"/>
<path d="M13.3337 6.66667H6.66699C6.00415 6.66601 5.36865 6.4024 4.89996 5.9337C4.43126 5.46501 4.16765 4.8295 4.16699 4.16667V2.5C4.16765 1.83716 4.43126 1.20166 4.89996 0.732964C5.36865 0.264266 6.00415 0.000661846 6.66699 0L13.3337 0C13.9965 0.000661846 14.632 0.264266 15.1007 0.732964C15.5694 1.20166 15.833 1.83716 15.8337 2.5V4.16667C15.833 4.8295 15.5694 5.46501 15.1007 5.9337C14.632 6.4024 13.9965 6.66601 13.3337 6.66667ZM6.66699 1.66667C6.44598 1.66667 6.23402 1.75446 6.07774 1.91074C5.92146 2.06702 5.83366 2.27899 5.83366 2.5V4.16667C5.83366 4.38768 5.92146 4.59964 6.07774 4.75592C6.23402 4.9122 6.44598 5 6.66699 5H13.3337C13.5547 5 13.7666 4.9122 13.9229 4.75592C14.0792 4.59964 14.167 4.38768 14.167 4.16667V2.5C14.167 2.27899 14.0792 2.06702 13.9229 1.91074C13.7666 1.75446 13.5547 1.66667 13.3337 1.66667H6.66699Z" fill="#454545"/>
</g>
<defs>
<clipPath id="clip0_353_9362">
<rect width="20" height="20" rx="10" fill="white"/>
</clipPath>
</defs>
</svg>
