<svg width="24" height="24" viewBox="0 0 24 24" fill="none" xmlns="http://www.w3.org/2000/svg">
<path d="M11.9998 4.5C11.3368 4.5 10.7009 4.76339 10.232 5.23223C9.7632 5.70107 9.4998 6.33696 9.4998 7C9.4998 7.66304 9.7632 8.29893 10.232 8.76777C10.7009 9.23661 11.3368 9.5 11.9998 9.5C12.6628 9.5 13.2987 9.23661 13.7676 8.76777C14.2364 8.29893 14.4998 7.66304 14.4998 7C14.4998 6.33696 14.2364 5.70107 13.7676 5.23223C13.2987 4.76339 12.6628 4.5 11.9998 4.5ZM8.4998 7C8.4998 6.54037 8.59033 6.08525 8.76623 5.66061C8.94212 5.23597 9.19993 4.85013 9.52493 4.52513C9.84994 4.20012 10.2358 3.94231 10.6604 3.76642C11.0851 3.59053 11.5402 3.5 11.9998 3.5C12.4594 3.5 12.9146 3.59053 13.3392 3.76642C13.7638 3.94231 14.1497 4.20012 14.4747 4.52513C14.7997 4.85013 15.0575 5.23597 15.2334 5.66061C15.4093 6.08525 15.4998 6.54037 15.4998 7C15.4998 7.92826 15.1311 8.8185 14.4747 9.47487C13.8183 10.1313 12.9281 10.5 11.9998 10.5C11.0715 10.5 10.1813 10.1313 9.52493 9.47487C8.86855 8.8185 8.4998 7.92826 8.4998 7ZM9.3698 12.546C9.13647 12.606 8.90547 12.6733 8.6768 12.748L7.7178 13.063C7.32607 13.1905 6.97228 13.4137 6.6884 13.7122C6.40451 14.0108 6.19947 14.3753 6.0918 14.773L5.6928 17.653C5.6028 18.3 5.9458 18.833 6.4888 18.963C7.5558 19.218 9.3398 19.5 11.9988 19.5C14.6588 19.5 16.4438 19.218 17.5108 18.963C18.0538 18.833 18.3958 18.3 18.3068 17.653L17.9068 14.773C17.7991 14.3753 17.5941 14.0108 17.3102 13.7122C17.0263 13.4137 16.6725 13.1905 16.2808 13.063L15.3218 12.748C15.0931 12.6727 14.8625 12.6053 14.6298 12.546C14.4492 12.6877 14.2579 12.8154 14.0578 12.928C13.4312 13.2879 12.7224 13.4801 11.9998 13.486C11.1398 13.486 10.4298 13.203 9.9418 12.928C9.74133 12.8155 9.55077 12.6878 9.3698 12.546ZM9.6538 11.451L9.8478 11.642L9.8528 11.647L9.8768 11.669C9.90014 11.6903 9.93714 11.721 9.9878 11.761C10.0878 11.841 10.2388 11.949 10.4318 12.057C10.8188 12.275 11.3588 12.486 11.9988 12.486C12.6388 12.486 13.1788 12.276 13.5658 12.057C13.7626 11.9459 13.9481 11.8159 14.1198 11.669L14.1448 11.646L14.1488 11.643L14.3428 11.451L14.6108 11.513C14.9548 11.5917 15.2955 11.6867 15.6328 11.798L16.5928 12.113C17.1493 12.2937 17.651 12.6121 18.0514 13.0387C18.4517 13.4653 18.7377 13.9862 18.8828 14.553L18.8898 14.58L19.2958 17.516C19.4428 18.576 18.8758 19.666 17.7418 19.936C16.5918 20.21 14.7288 20.5 11.9988 20.5C9.2688 20.5 7.4058 20.21 6.2558 19.936C5.1218 19.666 4.5548 18.576 4.7008 17.516L5.1078 14.58L5.1148 14.553C5.25986 13.9862 5.54588 13.4653 5.94625 13.0387C6.34662 12.6121 6.84835 12.2937 7.4048 12.113L8.3648 11.798C8.70214 11.6873 9.0428 11.5923 9.3868 11.513L9.6538 11.451Z" fill="#404040"/>
</svg>
