<svg width="26" height="24" viewBox="0 0 26 24" fill="none" xmlns="http://www.w3.org/2000/svg">
<path d="M21.5966 15.2943C22.0487 14.1963 22.2941 13.0209 22.2941 11.7293C22.2941 10.7993 22.152 9.90803 21.9066 9.08136C21.067 9.27511 20.1887 9.37845 19.2716 9.37845C17.3935 9.38046 15.5424 8.93091 13.8744 8.0677C12.2064 7.20448 10.7704 5.9529 9.68747 4.41846C8.53009 7.22233 6.34428 9.47745 3.57791 10.7218C3.52624 11.0447 3.52624 11.3934 3.52624 11.7293C3.52624 12.9624 3.76913 14.1835 4.24104 15.3228C4.71295 16.4621 5.40464 17.4973 6.27662 18.3693C8.03766 20.1303 10.4261 21.1197 12.9166 21.1197C14.2729 21.1197 15.5775 20.8226 16.7529 20.293C17.4891 21.7009 17.8249 22.3984 17.7991 22.3984C15.6808 23.1088 14.0404 23.4576 12.9166 23.4576C9.7908 23.4576 6.80706 22.2305 4.61124 20.0217C3.27443 18.6912 2.28143 17.0554 1.71791 15.2555H0V9.37845H1.40791C1.83447 7.30212 2.81517 5.37999 4.24594 3.81602C5.67671 2.25205 7.50418 1.10458 9.53444 0.495373C11.5647 -0.113838 13.722 -0.162066 15.7775 0.355806C17.8329 0.873679 19.7099 1.93833 21.2091 3.4368C22.8363 5.05858 23.9465 7.12616 24.3995 9.37845H25.8333V15.2555H25.7558L21.1574 19.4792L14.3116 18.7043V16.5472H20.5504L21.5966 15.2943ZM9.39039 11.4322C9.77789 11.4322 10.1525 11.5872 10.4237 11.8714C10.6963 12.1462 10.8493 12.5176 10.8493 12.9047C10.8493 13.2918 10.6963 13.6632 10.4237 13.938C10.1525 14.2093 9.77789 14.3643 9.39039 14.3643C8.57664 14.3643 7.91789 13.7184 7.91789 12.9047C7.91789 12.0909 8.57664 11.4322 9.39039 11.4322ZM16.4299 11.4322C17.2437 11.4322 17.8895 12.0909 17.8895 12.9047C17.8895 13.7184 17.2437 14.3643 16.4299 14.3643C15.6162 14.3643 14.9575 13.7184 14.9575 12.9047C14.9575 12.5142 15.1126 12.1396 15.3887 11.8635C15.6649 11.5873 16.0394 11.4322 16.4299 11.4322Z" fill="#888888"/>
</svg>
