<svg width="169" height="32" viewBox="0 0 169 32" fill="none" xmlns="http://www.w3.org/2000/svg">
<path d="M4.41846 2.82227C4.30155 3.5531 4.36155 4.30059 4.4917 5.02539C4.59619 5.58345 4.74199 6.13523 4.94873 6.66504C4.9752 6.73667 5.01434 6.80441 5.02979 6.87988C5.02841 8.72084 5.02936 10.5624 5.02881 12.4033C5.03294 13.0353 5.0189 13.6672 5.0415 14.2988C5.087 15.4728 5.26607 16.6431 5.59717 17.7715C5.90461 18.8215 6.34139 19.8349 6.89893 20.7773C7.87852 22.4454 9.2233 23.8826 10.7495 25.0684C11.9219 25.9756 13.2003 26.7482 14.5483 27.3682C13.8262 28.004 12.9552 28.4394 12.0845 28.8359C11.4216 29.1296 10.7423 29.3876 10.0513 29.6074C7.64863 28.0923 5.50383 26.1364 3.91455 23.7793C2.73889 22.0501 1.88188 20.1077 1.39795 18.0762C1.08418 16.7773 0.931676 15.4434 0.893066 14.1094V4.97754C0.914623 4.41015 1.18206 3.85657 1.61865 3.49023C1.98781 3.17495 2.4726 2.99618 2.95947 2.99805C3.45055 2.99887 3.94034 2.93094 4.41846 2.82227ZM15.8081 0C16.5633 0.0268953 17.3191 0.0881408 18.0649 0.211914C19.225 0.396074 20.3629 0.704762 21.4731 1.08398C22.5707 1.4561 23.6424 1.89795 24.7319 2.29199C25.6526 2.62185 26.5978 2.9312 27.5815 2.98828C27.7937 3.00496 28.0084 2.98595 28.2192 3.02051C28.6142 3.07765 28.9902 3.2538 29.2876 3.51855C29.738 3.91204 29.9988 4.50728 29.9829 5.10352C29.9821 6.03874 29.9822 6.97396 29.9819 7.90918C29.5422 7.62221 29.051 7.42126 28.5493 7.26953C27.7711 7.03879 26.9621 6.90697 26.1499 6.88281C26.0209 6.87568 25.891 6.8947 25.7622 6.87988C23.8594 6.49318 22.0962 5.65495 20.27 5.02539C19.1455 4.63465 17.9869 4.32138 16.8003 4.19238C15.3654 4.02855 13.9039 4.13267 12.5005 4.46582C11.4173 4.7191 10.369 5.0965 9.33154 5.49219C8.31354 5.88299 7.29855 6.28888 6.25049 6.5957C6.21991 6.60017 6.18037 6.62305 6.15479 6.59375C5.95685 6.43019 5.80367 6.22029 5.66748 6.00488C5.42271 5.61118 5.24158 5.18173 5.09326 4.74414C4.88095 4.09975 4.74353 3.42702 4.72119 2.74805C5.29166 2.59546 5.85043 2.40172 6.40381 2.19727C7.53883 1.77825 8.65838 1.3169 9.81104 0.947266C11.5542 0.376152 13.378 0.0233276 15.2163 0H15.8081Z" fill="black"/>
<path d="M4.41846 2.82227C4.30155 3.5531 4.36155 4.30059 4.4917 5.02539C4.59619 5.58345 4.74199 6.13523 4.94873 6.66504C4.9752 6.73667 5.01434 6.80441 5.02979 6.87988C5.02841 8.72084 5.02936 10.5624 5.02881 12.4033C5.03294 13.0353 5.0189 13.6672 5.0415 14.2988C5.087 15.4728 5.26607 16.6431 5.59717 17.7715C5.90461 18.8215 6.34139 19.8349 6.89893 20.7773C7.87852 22.4454 9.2233 23.8826 10.7495 25.0684C11.9219 25.9756 13.2003 26.7482 14.5483 27.3682C13.8262 28.004 12.9552 28.4394 12.0845 28.8359C11.4216 29.1296 10.7423 29.3876 10.0513 29.6074C7.64863 28.0923 5.50383 26.1364 3.91455 23.7793C2.73889 22.0501 1.88188 20.1077 1.39795 18.0762C1.08418 16.7773 0.931676 15.4434 0.893066 14.1094V4.97754C0.914623 4.41015 1.18206 3.85657 1.61865 3.49023C1.98781 3.17495 2.4726 2.99618 2.95947 2.99805C3.45055 2.99887 3.94034 2.93094 4.41846 2.82227ZM15.8081 0C16.5633 0.0268953 17.3191 0.0881408 18.0649 0.211914C19.225 0.396074 20.3629 0.704762 21.4731 1.08398C22.5707 1.4561 23.6424 1.89795 24.7319 2.29199C25.6526 2.62185 26.5978 2.9312 27.5815 2.98828C27.7937 3.00496 28.0084 2.98595 28.2192 3.02051C28.6142 3.07765 28.9902 3.2538 29.2876 3.51855C29.738 3.91204 29.9988 4.50728 29.9829 5.10352C29.9821 6.03874 29.9822 6.97396 29.9819 7.90918C29.5422 7.62221 29.051 7.42126 28.5493 7.26953C27.7711 7.03879 26.9621 6.90697 26.1499 6.88281C26.0209 6.87568 25.891 6.8947 25.7622 6.87988C23.8594 6.49318 22.0962 5.65495 20.27 5.02539C19.1455 4.63465 17.9869 4.32138 16.8003 4.19238C15.3654 4.02855 13.9039 4.13267 12.5005 4.46582C11.4173 4.7191 10.369 5.0965 9.33154 5.49219C8.31354 5.88299 7.29855 6.28888 6.25049 6.5957C6.21991 6.60017 6.18037 6.62305 6.15479 6.59375C5.95685 6.43019 5.80367 6.22029 5.66748 6.00488C5.42271 5.61118 5.24158 5.18173 5.09326 4.74414C4.88095 4.09975 4.74353 3.42702 4.72119 2.74805C5.29166 2.59546 5.85043 2.40172 6.40381 2.19727C7.53883 1.77825 8.65838 1.3169 9.81104 0.947266C11.5542 0.376152 13.378 0.0233276 15.2163 0H15.8081Z" fill="url(#paint0_linear_247_30021)"/>
<path d="M25.8457 7.9581C26.2913 7.78164 26.7763 7.73663 27.252 7.72675C28.1801 7.72071 29.1192 7.86177 29.982 8.21086C29.9817 10.0941 29.9826 11.9773 29.9817 13.8605C29.9737 14.5754 29.9313 15.2904 29.8461 16.0003C29.591 18.1761 28.9353 20.3074 27.8942 22.2387C26.9534 23.9973 25.7035 25.5852 24.2548 26.9574C22.7697 28.3628 21.0789 29.5465 19.2734 30.5079C18.3091 31.0191 17.3118 31.4714 16.2811 31.8331C16.055 31.9158 15.8215 31.9769 15.5816 32.0011H15.3547C15.1597 31.9898 14.9661 31.9564 14.7809 31.8952C14.3821 31.7654 13.9906 31.6147 13.6035 31.4547C12.5248 31.0046 11.4787 30.4766 10.4797 29.8712C11.2465 29.7891 11.9885 29.5564 12.6993 29.2657C13.6509 28.8719 14.5559 28.3675 15.3993 27.7785C15.5077 27.714 15.6304 27.6797 15.7451 27.6279C17.0705 27.068 18.3345 26.363 19.5066 25.5306C21.2118 24.3162 22.7275 22.8095 23.8274 21.0251C23.4841 20.0497 22.9927 19.121 22.3346 18.3194C21.7525 17.6039 21.0411 16.9944 20.2481 16.5215C19.3274 15.9685 18.3009 15.6035 17.2487 15.3944C16.0153 15.152 14.7453 15.1205 13.4965 15.2489C12.3955 15.3639 11.3061 15.5972 10.2563 15.9474C10.6636 15.5072 11.1009 15.0952 11.5482 14.6959C13.041 13.372 14.7602 12.2619 16.6754 11.6554C17.7996 11.2986 18.9844 11.1257 20.1645 11.1702C21.4106 11.2149 22.645 11.4995 23.7915 11.985C24.5142 12.2866 25.1978 12.6738 25.8457 13.1105C25.846 11.393 25.8463 9.67556 25.8457 7.9581Z" fill="black"/>
<path d="M25.8457 7.9581C26.2913 7.78164 26.7763 7.73663 27.252 7.72675C28.1801 7.72071 29.1192 7.86177 29.982 8.21086C29.9817 10.0941 29.9826 11.9773 29.9817 13.8605C29.9737 14.5754 29.9313 15.2904 29.8461 16.0003C29.591 18.1761 28.9353 20.3074 27.8942 22.2387C26.9534 23.9973 25.7035 25.5852 24.2548 26.9574C22.7697 28.3628 21.0789 29.5465 19.2734 30.5079C18.3091 31.0191 17.3118 31.4714 16.2811 31.8331C16.055 31.9158 15.8215 31.9769 15.5816 32.0011H15.3547C15.1597 31.9898 14.9661 31.9564 14.7809 31.8952C14.3821 31.7654 13.9906 31.6147 13.6035 31.4547C12.5248 31.0046 11.4787 30.4766 10.4797 29.8712C11.2465 29.7891 11.9885 29.5564 12.6993 29.2657C13.6509 28.8719 14.5559 28.3675 15.3993 27.7785C15.5077 27.714 15.6304 27.6797 15.7451 27.6279C17.0705 27.068 18.3345 26.363 19.5066 25.5306C21.2118 24.3162 22.7275 22.8095 23.8274 21.0251C23.4841 20.0497 22.9927 19.121 22.3346 18.3194C21.7525 17.6039 21.0411 16.9944 20.2481 16.5215C19.3274 15.9685 18.3009 15.6035 17.2487 15.3944C16.0153 15.152 14.7453 15.1205 13.4965 15.2489C12.3955 15.3639 11.3061 15.5972 10.2563 15.9474C10.6636 15.5072 11.1009 15.0952 11.5482 14.6959C13.041 13.372 14.7602 12.2619 16.6754 11.6554C17.7996 11.2986 18.9844 11.1257 20.1645 11.1702C21.4106 11.2149 22.645 11.4995 23.7915 11.985C24.5142 12.2866 25.1978 12.6738 25.8457 13.1105C25.846 11.393 25.8463 9.67556 25.8457 7.9581Z" fill="url(#paint1_linear_247_30021)"/>
<path d="M165.585 31.7885C164.873 31.7885 164.375 31.7043 164.09 31.5359C163.805 31.3394 163.662 31.0728 163.662 30.7359V10.6519C163.662 10.3151 163.805 10.0624 164.09 9.89401C164.375 9.69752 164.873 9.59927 165.585 9.59927H166.184C166.896 9.59927 167.394 9.69752 167.679 9.89401C167.964 10.0624 168.107 10.3151 168.107 10.6519V30.7359C168.107 31.0728 167.964 31.3394 167.679 31.5359C167.394 31.7043 166.896 31.7885 166.184 31.7885H165.585ZM165.884 6.90456C165.058 6.90456 164.474 6.82035 164.132 6.65193C163.791 6.45544 163.62 6.18878 163.62 5.85194V3.11512C163.62 2.77828 163.791 2.52565 164.132 2.35724C164.474 2.16074 165.058 2.0625 165.884 2.0625C166.682 2.0625 167.252 2.16074 167.594 2.35724C167.936 2.52565 168.107 2.77828 168.107 3.11512V5.85194C168.107 6.18878 167.936 6.45544 167.594 6.65193C167.252 6.82035 166.682 6.90456 165.884 6.90456Z" fill="#B963FE"/>
<path d="M145.932 32.0009C143.796 32.0009 142.087 31.4676 140.805 30.401C139.551 29.3062 138.924 27.7483 138.924 25.7273C138.924 24.4361 139.138 23.3133 139.565 22.3589C139.993 21.4045 140.705 20.6046 141.702 19.9589C142.728 19.3133 144.123 18.8362 145.89 18.5274C147.656 18.1905 149.864 18.0221 152.513 18.0221V16.2116C152.513 15.5941 152.371 15.0467 152.086 14.5695C151.83 14.0923 151.388 13.7134 150.761 13.4327C150.135 13.1239 149.294 12.9695 148.24 12.9695C147.044 12.9695 145.975 13.1099 145.035 13.3906C144.095 13.6432 143.326 13.9099 142.728 14.1906C142.129 14.4432 141.73 14.5695 141.531 14.5695C141.36 14.5695 141.203 14.4853 141.061 14.3169C140.919 14.1204 140.776 13.8818 140.634 13.6011C140.52 13.3204 140.42 13.0397 140.335 12.759C140.249 12.4783 140.206 12.2397 140.206 12.0432C140.206 11.7625 140.448 11.4818 140.933 11.2011C141.417 10.8924 142.058 10.6117 142.856 10.359C143.682 10.0783 144.579 9.85378 145.548 9.68536C146.545 9.48887 147.528 9.39062 148.496 9.39062C149.892 9.39062 151.117 9.55905 152.171 9.89588C153.226 10.2047 154.094 10.6538 154.778 11.2432C155.49 11.8327 156.017 12.5485 156.359 13.3906C156.73 14.2046 156.915 15.1169 156.915 16.1274V25.0957C156.915 26.3308 156.957 27.3273 157.043 28.0852C157.128 28.815 157.2 29.3764 157.257 29.7694C157.342 30.1624 157.385 30.4711 157.385 30.6957C157.385 30.8641 157.271 31.0185 157.043 31.1588C156.815 31.2711 156.53 31.3694 156.188 31.4536C155.846 31.5378 155.49 31.608 155.12 31.6641C154.778 31.6922 154.479 31.7062 154.223 31.7062C153.909 31.7062 153.667 31.5939 153.496 31.3694C153.354 31.1448 153.226 30.822 153.112 30.401C153.026 29.9518 152.912 29.4185 152.77 28.801C152.371 29.2782 151.858 29.7694 151.231 30.2746C150.605 30.7518 149.85 31.1588 148.966 31.4957C148.083 31.8325 147.072 32.0009 145.932 32.0009ZM146.659 28.3799C147.542 28.3799 148.34 28.2536 149.052 28.001C149.764 27.7203 150.405 27.3694 150.975 26.9484C151.545 26.5273 152.057 26.0642 152.513 25.5589V21.3484C150.719 21.3484 149.237 21.4186 148.069 21.5589C146.901 21.6993 145.975 21.9379 145.291 22.2747C144.636 22.5835 144.166 23.0045 143.881 23.5379C143.596 24.0431 143.454 24.6607 143.454 25.3905C143.454 26.3449 143.725 27.0887 144.266 27.622C144.807 28.1273 145.605 28.3799 146.659 28.3799Z" fill="#B963FE"/>
<path d="M132.245 31.7883C131.562 31.7883 131.049 31.7041 130.707 31.5356C130.394 31.3392 130.237 31.0725 130.237 30.7357V27.662C130.237 27.2971 130.394 27.0304 130.707 26.862C131.049 26.6936 131.562 26.6094 132.245 26.6094H133.1C133.812 26.6094 134.325 26.6936 134.638 26.862C134.952 27.0304 135.108 27.2971 135.108 27.662V30.7357C135.108 31.0725 134.952 31.3392 134.638 31.5356C134.325 31.7041 133.812 31.7883 133.1 31.7883H132.245Z" fill="#B963FE"/>
<path d="M111.543 31.7892C110.83 31.7892 110.332 31.705 110.047 31.5365C109.762 31.3401 109.62 31.0734 109.62 30.7365V1.09473C109.62 0.729818 109.762 0.463154 110.047 0.294733C110.332 0.0982448 110.83 0 111.543 0H112.141C112.853 0 113.352 0.0982448 113.636 0.294733C113.921 0.463154 114.064 0.729818 114.064 1.09473V19.1156H114.277L121.499 10.3157C121.642 10.0911 121.798 9.93675 121.969 9.85254C122.169 9.76833 122.397 9.71219 122.653 9.68412C122.909 9.62798 123.266 9.59991 123.721 9.59991H124.533C125.075 9.59991 125.488 9.64201 125.773 9.72622C126.086 9.81043 126.243 9.97885 126.243 10.2315C126.243 10.3438 126.2 10.4841 126.114 10.6525C126.029 10.821 125.901 11.0034 125.73 11.1999L117.525 21.0103V19.0735L126.627 30.3576C126.77 30.5541 126.869 30.7225 126.926 30.8629C127.012 30.9751 127.055 31.0734 127.055 31.1576C127.055 31.4102 126.884 31.5786 126.542 31.6629C126.228 31.7471 125.73 31.7892 125.046 31.7892H124.362C123.622 31.7892 123.066 31.719 122.696 31.5786C122.354 31.4383 122.012 31.1576 121.67 30.7365L114.277 21.4314H114.064V30.7365C114.064 31.0734 113.921 31.3401 113.636 31.5365C113.352 31.705 112.853 31.7892 112.141 31.7892H111.543Z" fill="#B963FE"/>
<path d="M97.8948 32.0009C94.4477 32.0009 91.8695 31.1308 90.1601 29.3904C88.4508 27.6501 87.5962 24.787 87.5962 20.801C87.5962 17.1239 88.4651 14.3029 90.2029 12.338C91.9692 10.3731 94.5616 9.39062 97.9802 9.39062C98.8064 9.39062 99.6041 9.4608 100.373 9.60115C101.171 9.7415 101.883 9.93799 102.51 10.1906C103.165 10.4152 103.678 10.6678 104.048 10.9485C104.419 11.2292 104.604 11.5099 104.604 11.7906C104.604 12.0432 104.533 12.366 104.39 12.759C104.276 13.1239 104.105 13.4608 103.877 13.7695C103.678 14.0502 103.464 14.1906 103.236 14.1906C103.037 14.1906 102.695 14.0923 102.211 13.8958C101.755 13.6713 101.157 13.4608 100.416 13.2643C99.7038 13.0678 98.8349 12.9695 97.8093 12.9695C95.9006 12.9695 94.4761 13.6151 93.536 14.9064C92.6244 16.1695 92.1686 18.1063 92.1686 20.7168C92.1686 23.3835 92.6244 25.3343 93.536 26.5694C94.4761 27.8045 95.986 28.422 98.0657 28.422C99.0343 28.422 99.8889 28.2957 100.63 28.0431C101.399 27.7905 102.04 27.5378 102.553 27.2852C103.065 27.0326 103.422 26.9062 103.621 26.9062C103.849 26.9062 104.048 27.0606 104.219 27.3694C104.419 27.6501 104.575 27.9729 104.689 28.3378C104.832 28.7027 104.903 29.0115 104.903 29.2641C104.903 29.5729 104.675 29.8957 104.219 30.2325C103.792 30.5413 103.236 30.836 102.553 31.1167C101.869 31.3694 101.114 31.5799 100.288 31.7483C99.4616 31.9167 98.6639 32.0009 97.8948 32.0009Z" fill="#B963FE"/>
<path d="M71.1473 32.0009C69.0107 32.0009 67.3014 31.4676 66.0194 30.401C64.7659 29.3062 64.1392 27.7483 64.1392 25.7273C64.1392 24.4361 64.3528 23.3133 64.7802 22.3589C65.2075 21.4045 65.9197 20.6046 66.9168 19.9589C67.9424 19.3133 69.3383 18.8362 71.1046 18.5274C72.8709 18.1905 75.0787 18.0221 77.7281 18.0221V16.2116C77.7281 15.5941 77.5857 15.0467 77.3008 14.5695C77.0444 14.0923 76.6028 13.7134 75.9761 13.4327C75.3494 13.1239 74.5089 12.9695 73.4549 12.9695C72.2584 12.9695 71.19 13.1099 70.2499 13.3906C69.3098 13.6432 68.5406 13.9099 67.9424 14.1906C67.3441 14.4432 66.9453 14.5695 66.7459 14.5695C66.5749 14.5695 66.4182 14.4853 66.2758 14.3169C66.1334 14.1204 65.9909 13.8818 65.8485 13.6011C65.7345 13.3204 65.6348 13.0397 65.5493 12.759C65.4639 12.4783 65.4211 12.2397 65.4211 12.0432C65.4211 11.7625 65.6633 11.4818 66.1476 11.2011C66.6319 10.8924 67.2729 10.6117 68.0706 10.359C68.8967 10.0783 69.7941 9.85378 70.7627 9.68536C71.7598 9.48887 72.7427 9.39062 73.7113 9.39062C75.1072 9.39062 76.3322 9.55905 77.3863 9.89588C78.4404 10.2047 79.3092 10.6538 79.993 11.2432C80.7052 11.8327 81.2322 12.5485 81.5741 13.3906C81.9444 14.2046 82.1296 15.1169 82.1296 16.1274V25.0957C82.1296 26.3308 82.1723 27.3273 82.2578 28.0852C82.3433 28.815 82.4145 29.3764 82.4715 29.7694C82.5569 30.1624 82.5997 30.4711 82.5997 30.6957C82.5997 30.8641 82.4857 31.0185 82.2578 31.1588C82.0299 31.2711 81.745 31.3694 81.4031 31.4536C81.0613 31.5378 80.7052 31.608 80.3348 31.6641C79.993 31.6922 79.6938 31.7062 79.4374 31.7062C79.1241 31.7062 78.8819 31.5939 78.711 31.3694C78.5685 31.1448 78.4404 30.822 78.3264 30.401C78.2409 29.9518 78.127 29.4185 77.9845 28.801C77.5857 29.2782 77.0729 29.7694 76.4462 30.2746C75.8194 30.7518 75.0645 31.1588 74.1813 31.4957C73.2982 31.8325 72.2869 32.0009 71.1473 32.0009ZM71.8738 28.3799C72.7569 28.3799 73.5546 28.2536 74.2668 28.001C74.979 27.7203 75.62 27.3694 76.1898 26.9484C76.7595 26.5273 77.2723 26.0642 77.7281 25.5589V21.3484C75.9334 21.3484 74.452 21.4186 73.2839 21.5589C72.1159 21.6993 71.19 21.9379 70.5063 22.2747C69.8511 22.5835 69.381 23.0045 69.0961 23.5379C68.8113 24.0431 68.6688 24.6607 68.6688 25.3905C68.6688 26.3449 68.9395 27.0887 69.4807 27.622C70.022 28.1273 70.8197 28.3799 71.8738 28.3799Z" fill="#B963FE"/>
<path d="M57.2259 31.9988C56.0294 31.9988 55.0181 31.7743 54.1919 31.3252C53.3942 30.876 52.796 30.2304 52.3971 29.3883C51.9983 28.5182 51.7989 27.4515 51.7989 26.1884V13.2622H49.8759C49.2207 13.2622 48.8931 12.7569 48.8931 11.7464V11.199C48.8931 10.1885 49.2207 9.68326 49.8759 9.68326H51.7989L52.3544 5.38856C52.4114 5.02365 52.5681 4.75699 52.8245 4.58857C53.0809 4.42015 53.4512 4.33594 53.9355 4.33594H54.5765C55.1748 4.33594 55.6021 4.42015 55.8585 4.58857C56.1149 4.75699 56.2431 5.02365 56.2431 5.38856V9.68326H59.5762C60.2315 9.68326 60.5591 10.1885 60.5591 11.199V11.7464C60.5591 12.7569 60.2315 13.2622 59.5762 13.2622H56.2431V26.1042C56.2431 26.9182 56.3713 27.4936 56.6277 27.8305C56.9126 28.1673 57.3969 28.3357 58.0806 28.3357C58.7073 28.3357 59.1489 28.2655 59.4053 28.1252C59.6902 27.9848 59.9323 27.9147 60.1317 27.9147C60.3027 27.9147 60.4309 28.0269 60.5163 28.2515C60.6303 28.448 60.7158 28.7006 60.7727 29.0094C60.8582 29.2901 60.9009 29.5708 60.9009 29.8515C60.9294 30.1041 60.9437 30.2866 60.9437 30.3989C60.9437 30.7076 60.73 30.9883 60.3027 31.2409C59.9038 31.4655 59.4195 31.648 58.8498 31.7883C58.28 31.9287 57.7387 31.9988 57.2259 31.9988Z" fill="#B963FE"/>
<path d="M42.6205 31.9988C41.4239 31.9988 40.4126 31.7743 39.5864 31.3252C38.7888 30.876 38.1905 30.2304 37.7917 29.3883C37.3928 28.5182 37.1934 27.4515 37.1934 26.1884V13.2622H35.2704C34.6152 13.2622 34.2876 12.7569 34.2876 11.7464V11.199C34.2876 10.1885 34.6152 9.68326 35.2704 9.68326H37.1934L37.7489 5.38856C37.8059 5.02365 37.9626 4.75699 38.219 4.58857C38.4754 4.42015 38.8457 4.33594 39.33 4.33594H39.971C40.5693 4.33594 40.9966 4.42015 41.253 4.58857C41.5094 4.75699 41.6376 5.02365 41.6376 5.38856V9.68326H44.9708C45.626 9.68326 45.9536 10.1885 45.9536 11.199V11.7464C45.9536 12.7569 45.626 13.2622 44.9708 13.2622H41.6376V26.1042C41.6376 26.9182 41.7658 27.4936 42.0222 27.8305C42.3071 28.1673 42.7914 28.3357 43.4751 28.3357C44.1019 28.3357 44.5434 28.2655 44.7998 28.1252C45.0847 27.9848 45.3269 27.9147 45.5263 27.9147C45.6972 27.9147 45.8254 28.0269 45.9109 28.2515C46.0248 28.448 46.1103 28.7006 46.1673 29.0094C46.2527 29.2901 46.2955 29.5708 46.2955 29.8515C46.324 30.1041 46.3382 30.2866 46.3382 30.3989C46.3382 30.7076 46.1245 30.9883 45.6972 31.2409C45.2984 31.4655 44.8141 31.648 44.2443 31.7883C43.6745 31.9287 43.1333 31.9988 42.6205 31.9988Z" fill="#B963FE"/>
<defs>
<linearGradient id="paint0_linear_247_30021" x1="2.88091" y1="7.59646" x2="26.3797" y2="23.7679" gradientUnits="userSpaceOnUse">
<stop stop-color="#A537FF"/>
<stop offset="1" stop-color="#3B0269"/>
</linearGradient>
<linearGradient id="paint1_linear_247_30021" x1="20.1192" y1="7.72656" x2="20.1192" y2="32.0011" gradientUnits="userSpaceOnUse">
<stop stop-color="#CB8BFF"/>
<stop offset="1" stop-color="#A537FF"/>
</linearGradient>
</defs>
</svg>
