<svg width="32" height="32" viewBox="0 0 32 32" fill="none" xmlns="http://www.w3.org/2000/svg">
<path d="M4.41846 2.82227C4.30155 3.5531 4.36155 4.30059 4.4917 5.02539C4.59619 5.58345 4.74199 6.13523 4.94873 6.66504C4.9752 6.73667 5.01434 6.80441 5.02979 6.87988C5.02841 8.72084 5.02936 10.5624 5.02881 12.4033C5.03294 13.0353 5.0189 13.6672 5.0415 14.2988C5.087 15.4728 5.26607 16.6431 5.59717 17.7715C5.90461 18.8215 6.34139 19.8349 6.89893 20.7773C7.87852 22.4454 9.2233 23.8826 10.7495 25.0684C11.9219 25.9756 13.2003 26.7482 14.5483 27.3682C13.8262 28.004 12.9552 28.4394 12.0845 28.8359C11.4216 29.1296 10.7423 29.3876 10.0513 29.6074C7.64863 28.0923 5.50383 26.1364 3.91455 23.7793C2.73889 22.0501 1.88188 20.1077 1.39795 18.0762C1.08418 16.7773 0.931676 15.4434 0.893066 14.1094V4.97754C0.914623 4.41015 1.18206 3.85657 1.61865 3.49023C1.98781 3.17495 2.4726 2.99618 2.95947 2.99805C3.45055 2.99887 3.94034 2.93094 4.41846 2.82227ZM15.8081 0C16.5633 0.0268953 17.3191 0.0881408 18.0649 0.211914C19.225 0.396074 20.3629 0.704762 21.4731 1.08398C22.5707 1.4561 23.6424 1.89795 24.7319 2.29199C25.6526 2.62185 26.5978 2.9312 27.5815 2.98828C27.7937 3.00496 28.0084 2.98595 28.2192 3.02051C28.6142 3.07765 28.9902 3.2538 29.2876 3.51855C29.738 3.91204 29.9988 4.50728 29.9829 5.10352C29.9821 6.03874 29.9822 6.97396 29.9819 7.90918C29.5422 7.62221 29.051 7.42126 28.5493 7.26953C27.7711 7.03879 26.9621 6.90697 26.1499 6.88281C26.0209 6.87568 25.891 6.8947 25.7622 6.87988C23.8594 6.49318 22.0962 5.65495 20.27 5.02539C19.1455 4.63465 17.9869 4.32138 16.8003 4.19238C15.3654 4.02855 13.9039 4.13267 12.5005 4.46582C11.4173 4.7191 10.369 5.0965 9.33154 5.49219C8.31354 5.88299 7.29855 6.28888 6.25049 6.5957C6.21991 6.60017 6.18037 6.62305 6.15479 6.59375C5.95685 6.43019 5.80367 6.22029 5.66748 6.00488C5.42271 5.61118 5.24158 5.18173 5.09326 4.74414C4.88095 4.09975 4.74353 3.42702 4.72119 2.74805C5.29166 2.59546 5.85043 2.40172 6.40381 2.19727C7.53883 1.77825 8.65838 1.3169 9.81104 0.947266C11.5542 0.376152 13.378 0.0233276 15.2163 0H15.8081Z" fill="black"/>
<path d="M4.41846 2.82227C4.30155 3.5531 4.36155 4.30059 4.4917 5.02539C4.59619 5.58345 4.74199 6.13523 4.94873 6.66504C4.9752 6.73667 5.01434 6.80441 5.02979 6.87988C5.02841 8.72084 5.02936 10.5624 5.02881 12.4033C5.03294 13.0353 5.0189 13.6672 5.0415 14.2988C5.087 15.4728 5.26607 16.6431 5.59717 17.7715C5.90461 18.8215 6.34139 19.8349 6.89893 20.7773C7.87852 22.4454 9.2233 23.8826 10.7495 25.0684C11.9219 25.9756 13.2003 26.7482 14.5483 27.3682C13.8262 28.004 12.9552 28.4394 12.0845 28.8359C11.4216 29.1296 10.7423 29.3876 10.0513 29.6074C7.64863 28.0923 5.50383 26.1364 3.91455 23.7793C2.73889 22.0501 1.88188 20.1077 1.39795 18.0762C1.08418 16.7773 0.931676 15.4434 0.893066 14.1094V4.97754C0.914623 4.41015 1.18206 3.85657 1.61865 3.49023C1.98781 3.17495 2.4726 2.99618 2.95947 2.99805C3.45055 2.99887 3.94034 2.93094 4.41846 2.82227ZM15.8081 0C16.5633 0.0268953 17.3191 0.0881408 18.0649 0.211914C19.225 0.396074 20.3629 0.704762 21.4731 1.08398C22.5707 1.4561 23.6424 1.89795 24.7319 2.29199C25.6526 2.62185 26.5978 2.9312 27.5815 2.98828C27.7937 3.00496 28.0084 2.98595 28.2192 3.02051C28.6142 3.07765 28.9902 3.2538 29.2876 3.51855C29.738 3.91204 29.9988 4.50728 29.9829 5.10352C29.9821 6.03874 29.9822 6.97396 29.9819 7.90918C29.5422 7.62221 29.051 7.42126 28.5493 7.26953C27.7711 7.03879 26.9621 6.90697 26.1499 6.88281C26.0209 6.87568 25.891 6.8947 25.7622 6.87988C23.8594 6.49318 22.0962 5.65495 20.27 5.02539C19.1455 4.63465 17.9869 4.32138 16.8003 4.19238C15.3654 4.02855 13.9039 4.13267 12.5005 4.46582C11.4173 4.7191 10.369 5.0965 9.33154 5.49219C8.31354 5.88299 7.29855 6.28888 6.25049 6.5957C6.21991 6.60017 6.18037 6.62305 6.15479 6.59375C5.95685 6.43019 5.80367 6.22029 5.66748 6.00488C5.42271 5.61118 5.24158 5.18173 5.09326 4.74414C4.88095 4.09975 4.74353 3.42702 4.72119 2.74805C5.29166 2.59546 5.85043 2.40172 6.40381 2.19727C7.53883 1.77825 8.65838 1.3169 9.81104 0.947266C11.5542 0.376152 13.378 0.0233276 15.2163 0H15.8081Z" fill="url(#paint0_linear_247_30021)"/>
<path d="M25.8457 7.9581C26.2913 7.78164 26.7763 7.73663 27.252 7.72675C28.1801 7.72071 29.1192 7.86177 29.982 8.21086C29.9817 10.0941 29.9826 11.9773 29.9817 13.8605C29.9737 14.5754 29.9313 15.2904 29.8461 16.0003C29.591 18.1761 28.9353 20.3074 27.8942 22.2387C26.9534 23.9973 25.7035 25.5852 24.2548 26.9574C22.7697 28.3628 21.0789 29.5465 19.2734 30.5079C18.3091 31.0191 17.3118 31.4714 16.2811 31.8331C16.055 31.9158 15.8215 31.9769 15.5816 32.0011H15.3547C15.1597 31.9898 14.9661 31.9564 14.7809 31.8952C14.3821 31.7654 13.9906 31.6147 13.6035 31.4547C12.5248 31.0046 11.4787 30.4766 10.4797 29.8712C11.2465 29.7891 11.9885 29.5564 12.6993 29.2657C13.6509 28.8719 14.5559 28.3675 15.3993 27.7785C15.5077 27.714 15.6304 27.6797 15.7451 27.6279C17.0705 27.068 18.3345 26.363 19.5066 25.5306C21.2118 24.3162 22.7275 22.8095 23.8274 21.0251C23.4841 20.0497 22.9927 19.121 22.3346 18.3194C21.7525 17.6039 21.0411 16.9944 20.2481 16.5215C19.3274 15.9685 18.3009 15.6035 17.2487 15.3944C16.0153 15.152 14.7453 15.1205 13.4965 15.2489C12.3955 15.3639 11.3061 15.5972 10.2563 15.9474C10.6636 15.5072 11.1009 15.0952 11.5482 14.6959C13.041 13.372 14.7602 12.2619 16.6754 11.6554C17.7996 11.2986 18.9844 11.1257 20.1645 11.1702C21.4106 11.2149 22.645 11.4995 23.7915 11.985C24.5142 12.2866 25.1978 12.6738 25.8457 13.1105C25.846 11.393 25.8463 9.67556 25.8457 7.9581Z" fill="black"/>
<path d="M25.8457 7.9581C26.2913 7.78164 26.7763 7.73663 27.252 7.72675C28.1801 7.72071 29.1192 7.86177 29.982 8.21086C29.9817 10.0941 29.9826 11.9773 29.9817 13.8605C29.9737 14.5754 29.9313 15.2904 29.8461 16.0003C29.591 18.1761 28.9353 20.3074 27.8942 22.2387C26.9534 23.9973 25.7035 25.5852 24.2548 26.9574C22.7697 28.3628 21.0789 29.5465 19.2734 30.5079C18.3091 31.0191 17.3118 31.4714 16.2811 31.8331C16.055 31.9158 15.8215 31.9769 15.5816 32.0011H15.3547C15.1597 31.9898 14.9661 31.9564 14.7809 31.8952C14.3821 31.7654 13.9906 31.6147 13.6035 31.4547C12.5248 31.0046 11.4787 30.4766 10.4797 29.8712C11.2465 29.7891 11.9885 29.5564 12.6993 29.2657C13.6509 28.8719 14.5559 28.3675 15.3993 27.7785C15.5077 27.714 15.6304 27.6797 15.7451 27.6279C17.0705 27.068 18.3345 26.363 19.5066 25.5306C21.2118 24.3162 22.7275 22.8095 23.8274 21.0251C23.4841 20.0497 22.9927 19.121 22.3346 18.3194C21.7525 17.6039 21.0411 16.9944 20.2481 16.5215C19.3274 15.9685 18.3009 15.6035 17.2487 15.3944C16.0153 15.152 14.7453 15.1205 13.4965 15.2489C12.3955 15.3639 11.3061 15.5972 10.2563 15.9474C10.6636 15.5072 11.1009 15.0952 11.5482 14.6959C13.041 13.372 14.7602 12.2619 16.6754 11.6554C17.7996 11.2986 18.9844 11.1257 20.1645 11.1702C21.4106 11.2149 22.645 11.4995 23.7915 11.985C24.5142 12.2866 25.1978 12.6738 25.8457 13.1105C25.846 11.393 25.8463 9.67556 25.8457 7.9581Z" fill="url(#paint1_linear_247_30021)"/>
<defs>
<linearGradient id="paint0_linear_247_30021" x1="2.88091" y1="7.59646" x2="26.3797" y2="23.7679" gradientUnits="userSpaceOnUse">
<stop stop-color="#A537FF"/>
<stop offset="1" stop-color="#3B0269"/>
</linearGradient>
<linearGradient id="paint1_linear_247_30021" x1="20.1192" y1="7.72656" x2="20.1192" y2="32.0011" gradientUnits="userSpaceOnUse">
<stop stop-color="#CB8BFF"/>
<stop offset="1" stop-color="#A537FF"/>
</linearGradient>
</defs>
</svg>
